<?xml version="1.0" encoding="UTF-8" standalone="no"?>
<!-- Created with Inkscape (http://www.inkscape.org/) -->
<svg xmlns:rdf="http://www.w3.org/1999/02/22-rdf-syntax-ns#" xmlns="http://www.w3.org/2000/svg" height="120.6875" width="136.15625" version="1.1" xmlns:cc="http://creativecommons.org/ns#" xmlns:xlink="http://www.w3.org/1999/xlink" xmlns:dc="http://purl.org/dc/elements/1.1/">
 <defs>
  <linearGradient id="linearGradient3262-7">
   <stop stop-color="#656565" offset="0"/>
   <stop stop-color="#939393" offset="1"/>
  </linearGradient>
  <linearGradient id="linearGradient3849" y2="571.90552" gradientUnits="userSpaceOnUse" x2="352.27246" gradientTransform="matrix(0.49056096,0,0,0.54664197,221.65973,-9.0918649)" y1="571.90552" x1="275.72681">
   <stop stop-color="#d8d8d8" offset="0"/>
   <stop stop-color="#b1b1b1" offset="1"/>
  </linearGradient>
  <linearGradient id="linearGradient3853" y2="535.99042" xlink:href="#linearGradient3262-7" gradientUnits="userSpaceOnUse" x2="355.81863" gradientTransform="matrix(0.3651346,0,0,0.22926082,202.77509,239.36046)" y1="520.33307" x1="332.91602"/>
  <linearGradient id="linearGradient3856" y2="538.1333" gradientUnits="userSpaceOnUse" x2="358.67578" gradientTransform="matrix(-0.3651346,0,0,0.22926082,546.84493,239.36046)" y1="522.47595" x1="338.63031">
   <stop stop-color="#d6d6d6" offset="0"/>
   <stop stop-color="#939393" offset="1"/>
  </linearGradient>
  <linearGradient id="linearGradient3860" y2="321.36786" gradientUnits="userSpaceOnUse" x2="526.08197" gradientTransform="matrix(0.3651346,0,0,0.22926082,223.39384,177.82572)" y1="333.99472" x1="529.11237">
   <stop stop-color="#d6d6d6" offset="0"/>
   <stop stop-color="#656565" offset="1"/>
  </linearGradient>
  <linearGradient id="linearGradient3864" y2="535.99042" xlink:href="#linearGradient3262-7" gradientUnits="userSpaceOnUse" x2="355.81863" gradientTransform="matrix(-0.3651346,0,0,-0.11078306,448.8044,363.72378)" y1="520.33307" x1="332.91602"/>
  <linearGradient id="linearGradient3868" y2="535.99042" xlink:href="#linearGradient3262-7" gradientUnits="userSpaceOnUse" x2="355.81863" gradientTransform="matrix(0.3651346,0,0,0.11078306,177.84543,244.83862)" y1="520.33307" x1="332.91602"/>
 </defs>
 <metadata>
  <rdf:RDF>
   <cc:Work rdf:about="">
    <dc:format>image/svg+xml</dc:format>
    <dc:type rdf:resource="http://purl.org/dc/dcmitype/StillImage"/>
    <dc:title/>
   </cc:Work>
  </rdf:RDF>
 </metadata>
 <g transform="translate(-294.78125,-249.15625)">
  <rect fill-rule="evenodd" rx="8.8916521" ry="4.0887885" height="53.194637" width="21.019827" y="249.76598" x="295.43887" fill="#656565"/>
  <path d="m309.75632,293.10431,14.81686,0-5.31088,17.74496c-3.47083-2.48069-6.42613-2.6879-9.50598-3.44438v-14.30058z" fill-rule="evenodd" fill="#929292"/>
  <path d="m307.67774,298.80374-12.24538,0.63108,0.57738,4.58578c0.0105,1.44307,2.29576,3.32213,6.2046,3.37208l8.4142-0.028,2.95073-6.5466-5.90147-2.01435z" fill-rule="evenodd" fill="url(#linearGradient3868)"/>
  <rect fill-rule="evenodd" rx="5.1641793" ry="4.7264581" height="48.53635" width="12.721626" y="306.49606" x="319.46521" fill="#656565"/>
  <path d="m320.02263,309.75864,12.04336-0.67144,0.0691-5.59539c2.36163-3.13632-1.30741-4.84324-7.25776-3.43549l-8.85602,1.14138-2.95073,6.54659c2.13544,0.24735,4.62486,1.87624,6.46714,2.86241z" fill-rule="evenodd" fill="url(#linearGradient3864)"/>
  <rect fill-rule="evenodd" height="100.29203" width="19.73303" y="254.187" x="410.39658" fill="#d6d6d6"/>
  <path d="m414.17665,257.51026,15.90951-3.27519c-0.6321-3.1488-4.0747-4.23876-8.86754-4.33957-6.37753,0.11653-12.6011,0.28673-15.90951,1.47381l8.86754,6.14095z" fill-rule="evenodd" fill="url(#linearGradient3860)"/>
  <rect fill-rule="evenodd" rx="0" ry="0" height="14.300582" width="82.921249" y="354.51276" x="331.62469" fill="#929292"/>
  <path d="m411.20342,351.15478,18.9032,1.27372,0.0691,11.57944c-0.0105,2.98636-3.79075,4.70211-7.69959,4.80547l-8.41425-0.0578-9.31313-13.60583,6.45467-3.99488z" fill-rule="evenodd" fill="url(#linearGradient3856)"/>
  <path d="m332.60737,351.03898-13.09387,1.38952-0.0691,11.57944c0.0105,2.98636,3.79074,4.70211,7.69958,4.80547l8.4142-0.0578,2.95073-13.54793-5.90147-4.16858z" fill-rule="evenodd" fill="url(#linearGradient3853)"/>
  <rect fill-rule="evenodd" rx="3.0530386" ry="3.0410972" height="105.76691" width="63.917118" y="250.65225" x="351.92865" fill="#f1f1f1"/>
  <path d="m314.9635,250.64054c-4.66299,0-8.38067,2.33237-8.38071,5.23545v39.92042c0,2.90308,3.71772,5.23546,8.38071,5.23545h11.35806c2.71868,0.00001,4.92729,1.3054,5.1828,2.96217v47.18805c0,2.9031,3.77286,5.23547,8.43584,5.23547h66.54942c4.66298,0,8.92066,0.0906,8.75908-4.42779l0.16161-56.19335-0.16161-39.27428c-0.012-2.90307-0.21735-6.23414-6.49643-6.20467l-68.81207,0.32308z" fill-rule="evenodd" fill="url(#linearGradient3849)"/>
  <path stroke-linejoin="miter" d="m303.83911,249.9172c-2.30208,0-4.38414,0.49975-5.88946,1.30624-1.50139,0.80437-2.42906,1.91388-2.42908,3.13702v48.91025c0,2.44949,3.72039,4.4088,8.31854,4.4088h0.65243,6.63308c4.59821-0.00001,8.26416,1.99378,8.26416,4.44326v27.48618h0.0543v25.04066c0,2.4495,3.72039,4.44325,8.31854,4.44326h94.11359c4.59815,0,8.31849-1.99378,8.31853-4.44326v-61.3789-48.91025c0-1.03603-0.66553-1.99051-1.78153-2.74711-0.23451-0.15899-0.48892-0.30924-0.76121-0.44967-1.49562-0.77134-3.53112-1.24648-5.77579-1.24648h-94.11359-23.92259z" stroke-dashoffset="0" stroke="#000" stroke-linecap="butt" stroke-miterlimit="4" stroke-dasharray="none" stroke-width="1.50000012" fill="none"/>
  <text style="writing-mode:lr-tb;text-anchor:start;text-align:start;" font-weight="bold" xml:space="preserve" transform="scale(1.0002578,0.99974225)" font-style="normal" font-stretch="normal" font-size="17.91471672px" font-variant="normal" y="271.5108" x="360.02319" font-family="Arial" line-height="100%" fill="#000000"><tspan style="text-anchor:middle;text-align:center;" y="271.5108" x="360.02319">Commencer</tspan><tspan style="text-anchor:middle;text-align:center;" y="289.42551" x="362.50745">l&apos;expérience </tspan></text>
  <g transform="matrix(0.63997628,0,0,0.63964641,130.63718,111.53125)">
   <path d="m351.15549,347.90832,40.63362,0,0-31.29494" stroke-dashoffset="0" stroke="#000" stroke-linecap="round" stroke-miterlimit="4" stroke-dasharray="none" stroke-width="4.06369781" fill="none"/>
   <path d="m138.45351,1116.8748,5.77759-3.3357,0,6.6713z" fill-rule="evenodd" transform="matrix(3.0185523,0,0,3.0185523,-82.92427,-3023.9822)" fill="#000"/>
  </g>
 </g>
</svg>
